# xmcd CD database file
#
# Track frame offsets:
#	150
#	11137
#	28339
#	45284
#	61403
#	75791
#	88723
#	103963
#	120255
#	140561
#	154783
#	168695
#
# Disc length: 2440 seconds
#
# Revision: 0
# Processed by: cddbd v1.5.2PL0 Copyright (c) Steve Scherf et al.
# Submitted via: CDex 1.51
#
DISCID=9409860c
DTITLE=Peter Cairn - Lovepower
DYEAR=2006
DGENRE=Blues
TTITLE0=King of the world
TTITLE1=treat me like a star (tribute to Erich)
TTITLE2=Privacy
TTITLE3=A little more everyday
TTITLE4=Bluespreacher
TTITLE5=Happy is the fool
TTITLE6=Early one morning
TTITLE7=Music's my religion
TTITLE8=All that's left is to forgive
TTITLE9=Lovepower
TTITLE10=Let it shine on me
TTITLE11=No living without dying
EXTD=YEAR: 2006
EXTT0=
EXTT1=
EXTT2=
EXTT3=
EXTT4=
EXTT5=
EXTT6=
EXTT7=
EXTT8=
EXTT9=
EXTT10=
EXTT11=
PLAYORDER=
